<svg width="147" height="64" viewBox="0 0 147 64" fill="none" xmlns="http://www.w3.org/2000/svg">
<circle cx="115" cy="32" r="32" fill="#101828"/>
<path d="M112.255 22.4276L111.414 23.2939C111.138 23.5941 111 23.9448 111 24.345C111 24.7535 111.138 25.1 111.414 25.385L116.859 31L111.415 36.6149C111.138 36.8999 111 37.2464 111 37.6548C111 38.0552 111.138 38.4058 111.415 38.706L112.255 39.561C112.538 39.8537 112.878 40 113.274 40C113.677 40 114.013 39.8536 114.282 39.561L121.574 32.0399C121.858 31.7625 122 31.416 122 31C122 30.5918 121.858 30.2413 121.574 29.9488L114.282 22.4276C114.006 22.1426 113.67 22 113.274 22C112.886 22 112.546 22.1426 112.255 22.4276Z" fill="white"/>
<circle cx="32" cy="32.001" r="31.5" fill="#F2F4F7" stroke="#E4E7EC"/>
<path d="M36.6314 22.4751L37.548 23.4377C37.8493 23.7712 38 24.1608 38 24.6056C38 25.0595 37.8493 25.4444 37.548 25.7611L31.6088 32L37.5478 38.2388C37.8491 38.5554 37.9998 38.9405 37.9998 39.3942C37.9998 39.8391 37.8491 40.2286 37.5478 40.5622L36.6312 41.5122C36.3218 41.8375 35.951 42 35.5192 42C35.0793 42 34.7127 41.8373 34.4195 41.5123L26.4643 33.1554C26.1549 32.8472 26 32.4623 26 32C26 31.5464 26.1548 31.157 26.4643 30.832L34.4195 22.4751C34.721 22.1584 35.0875 22 35.5192 22C35.9429 22 36.3135 22.1584 36.6314 22.4751Z" fill="#101828"/>
</svg>
